Format                            : AVI
Format/Info                       : Audio Video Interleave
File size                         : 800 MiB
Duration                          : 1h 31mn
Overall bit rate                  : 1 219 Kbps
Writing application               : VirtualDubMod 1.5.4.1 (build 2178/release)
Writing library                   : VirtualDubMod build 2178/release

Video
Format                            : MPEG-4 Visual
Format profile                    : Advanced Simple@L5
Format settings, BVOP             : Yes
Format settings, QPel             : No
Format settings, GMC              : No warppoints
Format settings, Matrix           : Custom
Codec ID                          : XVID
Codec ID/Hint                     : XviD
Duration                          : 1h 31mn
Bit rate                          : 1 084 Kbps
Width                             : 576 pixels
Height                            : 432 pixels
Display aspect ratio              : 4:3
Frame rate                        : 23.976 fps
Color space                       : YUV
Chroma subsampling                : 4:2:0
Bit depth                         : 8 bits
Scan type                         : Progressive
Bits/(Pixel*Frame)                : 0.182
Stream size                       : 711 MiB (89%)
Writing library                   : XviD 1.3.0.dev55

Audio
Format                            : MPEG Audio
Format version                    : Version 1
Format profile                    : Layer 3
Mode                              : Joint stereo
Mode extension                    : MS Stereo
Codec ID                          : 55
Codec ID/Hint                     : MP3
Duration                          : 1h 31mn
Bit rate mode                     : Constant
Bit rate                          : 128 Kbps
Channel(s)                        : 2 channels
Sampling rate                     : 48.0 KHz
Stream size                       : 84.0 MiB (10%)
Alignment                         : Aligned on interleaves
Interleave, duration              : 83 ms (2.00 video frames)
Interleave, preload duration      : 504 ms
Writing library                   : LAME3.98r
Encoding settings                 : -m j -V 4 -q 2 -lowpass 17 -b 128
Language                          : English


Subtitles (removable, .srt files) : Croatian, English, Spanish

IF YOU DON'T NEED ANY OF THESE SUBTITLES
SIMPLY DELETE THEM! (Delete .srt files)